<svg version="1.1" id="Layer_1" xmlns="http://www.w3.org/2000/svg" xmlns:xlink="http://www.w3.org/1999/xlink" x="0px" y="0px"
	 width="100%" viewBox="0 0 512 512" enable-background="new 0 0 512 512" xml:space="preserve">
<path fill="#2864B4" opacity="1.000000" stroke="none" 
	d="
M374.000000,513.000000 
	C284.979095,513.000000 195.958206,513.000000 106.633240,512.610962 
	C105.828285,511.842163 105.370605,511.214081 104.820335,511.118347 
	C83.024162,507.326599 63.516983,498.177795 46.788013,484.022949 
	C23.890257,464.648560 8.819360,440.185120 2.934072,410.440582 
	C2.754886,409.534973 1.665182,408.809479 0.999994,408.000000 
	C1.000000,395.645782 1.000000,383.291534 1.220918,370.125244 
	C1.654065,366.341309 1.761477,363.357605 2.094774,360.399384 
	C5.347386,331.530365 13.076223,303.897949 26.132915,277.947968 
	C45.132084,240.187347 72.030594,209.196304 107.383614,185.814972 
	C116.379967,179.865067 125.781403,174.527634 135.320679,168.728180 
	C141.653168,165.983093 147.661713,163.418564 153.936005,160.771149 
	C154.454559,160.423203 154.707352,160.158157 154.963165,159.921783 
	C154.966202,159.950455 154.919006,159.916916 155.323883,159.947067 
	C158.137695,159.370270 160.612640,158.950531 162.945404,158.127686 
	C189.271179,148.841660 216.416641,144.875641 244.285278,144.960495 
	C291.432037,145.104034 338.579651,145.038452 385.726624,144.937225 
	C390.351166,144.927307 395.055817,144.454971 399.584534,143.523026 
	C436.435974,135.939362 461.840942,100.081474 456.193878,63.110817 
	C452.751953,40.577061 441.534576,23.212278 422.146088,11.712188 
	C414.132202,6.958822 404.756409,4.501554 396.000000,1.000003 
	C399.692902,1.000000 403.385834,1.000000 407.413940,1.394898 
	C408.251160,2.166836 408.711029,2.791112 409.261230,2.884773 
	C423.110596,5.242420 436.106720,10.039930 448.196472,17.086847 
	C481.965912,36.770515 503.022339,65.725029 511.081848,104.060127 
	C511.239105,104.808113 512.339539,105.357803 513.000000,106.000000 
	C513.000000,117.020897 513.000000,128.041794 512.775757,139.862885 
	C512.274414,143.130615 512.124451,145.620163 511.701294,148.062393 
	C504.821838,187.766693 484.188171,218.276184 449.877441,239.283310 
	C438.941620,245.978882 427.177948,251.174988 414.106537,252.680023 
	C413.614563,251.031616 413.296661,249.738541 412.924805,248.461166 
	C404.253082,218.674362 384.952118,200.241287 354.286530,194.640869 
	C323.966614,189.103577 298.337006,197.519714 278.580261,221.811523 
	C276.855682,223.931976 275.359711,226.238358 272.999786,229.508362 
	C272.999786,224.830811 273.034943,221.404984 272.993195,217.980072 
	C272.868073,207.709930 266.339325,201.095016 256.121124,201.016769 
	C246.128098,200.940262 236.133759,200.953308 226.140503,201.012756 
	C215.580231,201.075577 209.058014,207.616928 209.013168,218.212677 
	C208.957504,231.370682 208.999207,244.529099 208.999237,257.687347 
	C208.999329,304.990387 208.984924,352.293427 209.011368,399.596466 
	C209.017090,409.826660 215.335587,416.834351 224.957535,416.947968 
	C236.945007,417.089539 248.936646,416.878784 261.008789,417.199310 
	C261.702942,419.480530 262.278015,421.395386 262.932068,423.282867 
	C279.331451,470.609283 312.043579,499.688904 360.848511,510.700165 
	C365.184601,511.678467 369.613953,512.243225 374.000000,513.000000 
M96.999695,222.567932 
	C96.999733,281.182251 96.995964,339.796539 97.002861,398.410858 
	C97.004333,410.905945 103.154228,416.987305 115.760254,416.998444 
	C125.251762,417.006836 134.743896,417.066498 144.234634,416.980682 
	C154.177002,416.890747 160.962311,410.273651 160.971085,400.403290 
	C161.025192,339.457825 161.024643,278.512238 160.971069,217.566788 
	C160.962570,207.886917 154.279343,201.147980 144.716110,201.031860 
	C134.227036,200.904495 123.734009,200.904037 113.244965,201.032486 
	C103.866867,201.147324 97.281403,207.779984 97.009537,217.099167 
	C96.965858,218.596588 97.000999,220.096313 96.999695,222.567932 
z"/>
<path fill="#417DCD" opacity="1.000000" stroke="none" 
	d="
M395.531342,1.000003 
	C404.756409,4.501554 414.132202,6.958822 422.146088,11.712188 
	C441.534576,23.212278 452.751953,40.577061 456.193878,63.110817 
	C461.840942,100.081474 436.435974,135.939362 399.584534,143.523026 
	C395.055817,144.454971 390.351166,144.927307 385.726624,144.937225 
	C338.579651,145.038452 291.432037,145.104034 244.285278,144.960495 
	C216.416641,144.875641 189.271179,148.841660 162.945404,158.127686 
	C160.612640,158.950531 158.137695,159.370270 155.451096,159.637543 
	C156.118698,158.359940 157.091537,157.448029 158.005142,156.480179 
	C172.694733,140.918396 172.607147,116.644524 157.814026,101.299644 
	C143.099503,86.036308 119.062836,84.838593 103.050407,98.570831 
	C86.792557,112.513542 84.246750,136.535553 97.435394,153.449448 
	C106.962959,165.668152 119.931633,169.936264 134.996719,168.908783 
	C125.781403,174.527634 116.379967,179.865067 107.383614,185.814972 
	C72.030594,209.196304 45.132084,240.187347 26.132915,277.947968 
	C13.076223,303.897949 5.347386,331.530365 2.094774,360.399384 
	C1.761477,363.357605 1.654065,366.341309 1.220918,369.656586 
	C1.000000,282.312439 1.000000,194.624878 1.363444,106.716187 
	C2.127606,105.995422 2.790339,105.543587 2.891442,104.989311 
	C7.778326,78.198097 20.242762,55.631615 39.775875,36.626907 
	C57.899178,18.993877 79.233986,7.967793 103.873055,2.951145 
	C104.680962,2.786650 105.295387,1.671828 106.000000,1.000000 
	C202.354233,1.000000 298.708466,1.000000 395.531342,1.000003 
z"/>
<path fill="#0F4B9B" opacity="1.000000" stroke="none" 
	d="
M414.255463,253.042664 
	C427.177948,251.174988 438.941620,245.978882 449.877441,239.283310 
	C484.188171,218.276184 504.821838,187.766693 511.701294,148.062393 
	C512.124451,145.620163 512.274414,143.130615 512.775757,140.331543 
	C513.000000,229.020889 513.000000,318.041779 512.601440,407.447876 
	C511.838501,408.336487 511.238434,408.799255 511.143646,409.349121 
	C507.372375,431.235443 498.157898,450.767029 483.835815,467.478699 
	C464.319366,490.251495 439.961212,505.510010 410.072632,511.114471 
	C409.291351,511.260956 408.686920,512.350342 408.000000,513.000000 
	C396.979095,513.000000 385.958221,513.000000 374.468658,513.000000 
	C369.613953,512.243225 365.184601,511.678467 360.848511,510.700165 
	C312.043579,499.688904 279.331451,470.609283 262.932068,423.282867 
	C262.278015,421.395386 261.702942,419.480530 261.259949,416.963379 
	C269.504852,413.149628 272.963806,408.246552 272.991180,399.714844 
	C273.074310,373.815613 273.116882,347.916229 273.394897,321.772491 
	C280.869202,309.464996 289.634003,298.615845 300.204132,289.323730 
	C313.075165,278.008972 327.409546,269.117065 344.195801,264.225464 
	C350.434784,272.078156 353.033417,280.797607 353.019592,290.454956 
	C352.968140,326.451935 352.994080,362.449036 353.002411,398.446075 
	C353.005280,410.759735 359.148529,416.977264 371.312561,416.997528 
	C380.311798,417.012543 389.311096,417.007751 398.310364,416.998810 
	C410.922119,416.986267 416.994934,410.925507 416.997742,398.317352 
	C417.005798,361.987000 417.224548,325.654480 416.874512,289.327515 
	C416.757904,277.225281 415.170502,265.137207 414.255463,253.042664 
z"/>
<path fill="#ff000000" opacity="1.000000" stroke="none" 
	d="
M513.000000,105.531342 
	C512.339539,105.357803 511.239105,104.808113 511.081848,104.060127 
	C503.022339,65.725029 481.965912,36.770515 448.196472,17.086847 
	C436.106720,10.039930 423.110596,5.242420 409.261230,2.884773 
	C408.711029,2.791112 408.251160,2.166836 407.874573,1.394898 
	C442.926941,1.000000 477.853882,1.000000 513.000000,1.000000 
	C513.000000,35.687252 513.000000,70.374969 513.000000,105.531342 
z"/>
<path fill="#ff000000" opacity="1.000000" stroke="none" 
	d="
M0.999994,408.468658 
	C1.665182,408.809479 2.754886,409.534973 2.934072,410.440582 
	C8.819360,440.185120 23.890257,464.648560 46.788013,484.022949 
	C63.516983,498.177795 83.024162,507.326599 104.820335,511.118347 
	C105.370605,511.214081 105.828285,511.842163 106.164581,512.610962 
	C71.073059,513.000000 36.146114,513.000000 1.000000,513.000000 
	C1.000000,478.312744 1.000000,443.625031 0.999994,408.468658 
z"/>
<path fill="#ff000000" opacity="1.000000" stroke="none" 
	d="
M408.468658,513.000000 
	C408.686920,512.350342 409.291351,511.260956 410.072632,511.114471 
	C439.961212,505.510010 464.319366,490.251495 483.835815,467.478699 
	C498.157898,450.767029 507.372375,431.235443 511.143646,409.349121 
	C511.238434,408.799255 511.838501,408.336487 512.601440,407.916534 
	C513.000000,442.926941 513.000000,477.853882 513.000000,513.000000 
	C478.312744,513.000000 443.625031,513.000000 408.468658,513.000000 
z"/>
<path fill="#ff000000" opacity="1.000000" stroke="none" 
	d="
M105.531342,1.000000 
	C105.295387,1.671828 104.680962,2.786650 103.873055,2.951145 
	C79.233986,7.967793 57.899178,18.993877 39.775875,36.626907 
	C20.242762,55.631615 7.778326,78.198097 2.891442,104.989311 
	C2.790339,105.543587 2.127606,105.995422 1.363444,106.247528 
	C1.000000,71.073059 1.000000,36.146111 1.000000,1.000000 
	C35.687252,1.000000 70.374969,1.000000 105.531342,1.000000 
z"/>
<path fill="#ff000000" opacity="1.000000" stroke="none" 
	d="
M273.175293,322.016907 
	C273.116882,347.916229 273.074310,373.815613 272.991180,399.714844 
	C272.963806,408.246552 269.504852,413.149628 261.177673,416.584229 
	C248.936646,416.878784 236.945007,417.089539 224.957535,416.947968 
	C215.335587,416.834351 209.017090,409.826660 209.011368,399.596466 
	C208.984924,352.293427 208.999329,304.990387 208.999237,257.687347 
	C208.999207,244.529099 208.957504,231.370682 209.013168,218.212677 
	C209.058014,207.616928 215.580231,201.075577 226.140503,201.012756 
	C236.133759,200.953308 246.128098,200.940262 256.121124,201.016769 
	C266.339325,201.095016 272.868073,207.709930 272.993195,217.980072 
	C273.034943,221.404984 272.999786,224.830811 272.999786,229.508362 
	C275.359711,226.238358 276.855682,223.931976 278.580261,221.811523 
	C298.337006,197.519714 323.966614,189.103577 354.286530,194.640869 
	C384.952118,200.241287 404.253082,218.674362 412.924805,248.461166 
	C413.296661,249.738541 413.614563,251.031616 414.106537,252.680023 
	C415.170502,265.137207 416.757904,277.225281 416.874512,289.327515 
	C417.224548,325.654480 417.005798,361.987000 416.997742,398.317352 
	C416.994934,410.925507 410.922119,416.986267 398.310364,416.998810 
	C389.311096,417.007751 380.311798,417.012543 371.312561,416.997528 
	C359.148529,416.977264 353.005280,410.759735 353.002411,398.446075 
	C352.994080,362.449036 352.968140,326.451935 353.019592,290.454956 
	C353.033417,280.797607 350.434784,272.078156 344.093201,263.907776 
	C332.267517,250.757462 318.226868,245.916306 301.778503,250.781830 
	C285.370667,255.635361 275.343872,267.185181 273.525757,284.084381 
	C272.179688,296.596283 273.205902,309.363464 273.175293,322.016907 
z"/>
<path fill="#ff000000" opacity="1.000000" stroke="none" 
	d="
M96.999695,222.081451 
	C97.000999,220.096313 96.965858,218.596588 97.009537,217.099167 
	C97.281403,207.779984 103.866867,201.147324 113.244965,201.032486 
	C123.734009,200.904037 134.227036,200.904495 144.716110,201.031860 
	C154.279343,201.147980 160.962570,207.886917 160.971069,217.566788 
	C161.024643,278.512238 161.025192,339.457825 160.971085,400.403290 
	C160.962311,410.273651 154.177002,416.890747 144.234634,416.980682 
	C134.743896,417.066498 125.251762,417.006836 115.760254,416.998444 
	C103.154228,416.987305 97.004333,410.905945 97.002861,398.410858 
	C96.995964,339.796539 96.999733,281.182251 96.999695,222.081451 
z"/>
<path fill="#ff000000" opacity="1.000000" stroke="none" 
	d="
M135.320679,168.728195 
	C119.931633,169.936264 106.962959,165.668152 97.435394,153.449448 
	C84.246750,136.535553 86.792557,112.513542 103.050407,98.570831 
	C119.062836,84.838593 143.099503,86.036308 157.814026,101.299644 
	C172.607147,116.644524 172.694733,140.918396 158.005142,156.480179 
	C157.091537,157.448029 156.118698,158.359940 155.046204,159.607391 
	C154.919006,159.916916 154.966202,159.950455 154.682037,159.979523 
	C154.155350,160.290421 153.912811,160.572235 153.670258,160.854065 
	C147.661713,163.418564 141.653168,165.983093 135.320679,168.728195 
z"/>
<path fill="#417DCD" opacity="1.000000" stroke="none" 
	d="
M153.936020,160.771149 
	C153.912811,160.572235 154.155350,160.290421 154.679016,159.950867 
	C154.707352,160.158157 154.454559,160.423203 153.936020,160.771149 
z"/>
<path fill="#2965B4" opacity="1.000000" stroke="none" 
	d="
M273.394897,321.772491 
	C273.205902,309.363464 272.179688,296.596283 273.525757,284.084381 
	C275.343872,267.185181 285.370667,255.635361 301.778503,250.781830 
	C318.226868,245.916306 332.267517,250.757462 343.812012,263.713013 
	C327.409546,269.117065 313.075165,278.008972 300.204132,289.323730 
	C289.634003,298.615845 280.869202,309.464996 273.394897,321.772491 
z"/>
</svg>