<svg version="1.1" id="Layer_1" xmlns="http://www.w3.org/2000/svg" xmlns:xlink="http://www.w3.org/1999/xlink" x="0px" y="0px"
	 width="100%" viewBox="0 0 512 512" enable-background="new 0 0 512 512" xml:space="preserve">
<path fill="#ff000000" opacity="1.000000" stroke="none" 
	d="
M0.999996,507.000000 
	C1.000000,503.969391 1.000000,500.938812 1.328214,497.770508 
	C2.018205,497.291290 2.599206,497.009247 2.710247,496.599792 
	C7.500694,478.935272 12.232304,461.254852 17.007689,443.586243 
	C22.665976,422.651001 28.392906,401.734161 33.966663,380.776489 
	C34.404804,379.129028 34.377823,377.008179 33.715958,375.474640 
	C29.453867,365.599213 24.695963,355.933167 20.585344,345.997925 
	C11.054874,322.963104 5.569149,298.788422 4.304594,274.038818 
	C3.406030,256.452301 4.308870,238.604523 6.310128,221.090729 
	C8.018559,206.139572 11.720404,191.294693 15.842422,176.772354 
	C20.724207,159.573257 28.633024,143.524673 37.472027,127.941605 
	C46.125393,112.685806 56.298084,98.528198 68.082565,85.636093 
	C75.886566,77.098587 84.586082,69.361305 93.084236,61.480961 
	C105.964523,49.537083 120.562782,39.936295 135.946594,31.617500 
	C163.543793,16.694317 192.731781,6.457280 224.080185,2.923036 
	C224.783463,2.843747 225.362839,1.665581 226.000000,1.000002 
	C247.020889,1.000000 268.041779,1.000000 289.208862,1.350110 
	C290.190155,2.132403 290.984192,2.809180 291.867065,2.957619 
	C298.255859,4.031802 304.687927,4.860714 311.059052,6.025666 
	C332.759155,9.993490 353.301544,17.689325 372.832214,27.556448 
	C390.753235,36.610355 407.612885,47.598522 422.732391,61.109009 
	C439.658539,76.233856 455.270905,92.416405 468.111420,111.249130 
	C477.433167,124.921043 485.350830,139.310974 491.813568,154.486008 
	C502.380127,179.297180 509.297546,205.054199 511.076050,232.078751 
	C511.142639,233.090317 512.333191,234.027924 513.000000,235.000000 
	C513.000000,248.020889 513.000000,261.041779 512.641357,274.202118 
	C511.855011,275.681030 511.250824,276.991791 511.027252,278.364532 
	C509.073456,290.360748 507.795898,302.504028 505.148590,314.342285 
	C500.406494,335.547668 492.474915,355.584534 482.161072,374.811310 
	C471.982117,393.786560 459.775177,411.248535 445.298828,427.014160 
	C430.201477,443.456055 413.079010,457.569763 394.112793,469.601105 
	C373.444672,482.712097 351.550293,492.658600 328.102325,499.493561 
	C310.760437,504.548645 293.048645,507.904541 275.123291,508.774109 
	C254.092606,509.794312 233.053757,509.124146 212.136337,505.164520 
	C190.011108,500.976288 168.795303,494.300568 148.548279,484.680450 
	C142.790176,481.944580 137.765488,480.189880 131.632462,482.901794 
	C128.287567,484.380829 124.579155,485.068665 121.002396,485.987610 
	C88.474976,494.344818 55.938332,502.666168 23.424446,511.075531 
	C22.823883,511.230865 22.469336,512.337341 22.000002,513.000000 
	C16.977907,513.000000 11.955815,513.000000 6.773714,512.722900 
	C4.742468,510.630493 2.871231,508.815247 0.999996,507.000000 
M313.191467,491.783722 
	C327.968109,486.769379 343.207764,482.804047 357.427216,476.527466 
	C389.301758,462.457794 416.760315,442.081390 439.886169,415.788300 
	C457.532043,395.725647 471.483307,373.505768 482.001007,349.026825 
	C492.993713,323.442444 499.313019,296.662384 500.821869,268.958099 
	C502.283142,242.127502 499.395355,215.628464 492.173035,189.590347 
	C482.027008,153.011520 464.214996,120.673080 438.911926,92.581474 
	C421.010315,72.707031 400.381073,56.086956 376.961334,42.816982 
	C344.830811,24.611345 310.315186,14.535781 273.715607,12.288078 
	C257.891754,11.316282 241.821014,12.611302 225.977844,14.102755 
	C199.738052,16.572931 175.024155,24.879271 151.392288,36.350250 
	C132.610687,45.466888 115.464493,57.049915 99.622696,70.713402 
	C76.562553,90.602646 57.676933,113.794853 43.281277,140.567169 
	C27.006704,170.833771 17.622911,203.295547 15.230846,237.498016 
	C13.828712,257.546173 14.643282,277.710632 18.396868,297.590729 
	C23.398466,324.080627 31.864439,349.336121 45.293587,372.835358 
	C46.265022,374.535248 46.888271,377.069214 46.402180,378.872742 
	C37.627129,411.431305 28.654312,443.936554 19.728762,476.454590 
	C17.465897,484.698700 15.220373,492.947601 12.706464,502.147278 
	C15.773450,501.460236 17.819166,501.068390 19.829590,500.541779 
	C59.032261,490.273407 98.220688,479.950165 137.455200,469.805145 
	C139.827896,469.191650 142.778488,469.380615 145.078278,470.230103 
	C149.257278,471.773651 153.113617,474.170074 157.166229,476.079773 
	C184.710464,489.059296 213.885498,495.937134 244.110611,497.826904 
	C267.057922,499.261658 289.909027,497.272644 313.191467,491.783722 
z"/>
<path fill="#ff000000" opacity="1.000000" stroke="none" 
	d="
M22.468658,513.000000 
	C22.469336,512.337341 22.823883,511.230865 23.424446,511.075531 
	C55.938332,502.666168 88.474976,494.344818 121.002396,485.987610 
	C124.579155,485.068665 128.287567,484.380829 131.632462,482.901794 
	C137.765488,480.189880 142.790176,481.944580 148.548279,484.680450 
	C168.795303,494.300568 190.011108,500.976288 212.136337,505.164520 
	C233.053757,509.124146 254.092606,509.794312 275.123291,508.774109 
	C293.048645,507.904541 310.760437,504.548645 328.102325,499.493561 
	C351.550293,492.658600 373.444672,482.712097 394.112793,469.601105 
	C413.079010,457.569763 430.201477,443.456055 445.298828,427.014160 
	C459.775177,411.248535 471.982117,393.786560 482.161072,374.811310 
	C492.474915,355.584534 500.406494,335.547668 505.148590,314.342285 
	C507.795898,302.504028 509.073456,290.360748 511.027252,278.364532 
	C511.250824,276.991791 511.855011,275.681030 512.641357,274.670776 
	C513.000000,354.285706 513.000000,433.571411 513.000000,513.000000 
	C349.645813,513.000000 186.291550,513.000000 22.468658,513.000000 
z"/>
<path fill="#ff000000" opacity="1.000000" stroke="none" 
	d="
M225.531342,1.000002 
	C225.362839,1.665581 224.783463,2.843747 224.080185,2.923036 
	C192.731781,6.457280 163.543793,16.694317 135.946594,31.617500 
	C120.562782,39.936295 105.964523,49.537083 93.084236,61.480961 
	C84.586082,69.361305 75.886566,77.098587 68.082565,85.636093 
	C56.298084,98.528198 46.125393,112.685806 37.472027,127.941605 
	C28.633024,143.524673 20.724207,159.573257 15.842422,176.772354 
	C11.720404,191.294693 8.018559,206.139572 6.310128,221.090729 
	C4.308870,238.604523 3.406030,256.452301 4.304594,274.038818 
	C5.569149,298.788422 11.054874,322.963104 20.585344,345.997925 
	C24.695963,355.933167 29.453867,365.599213 33.715958,375.474640 
	C34.377823,377.008179 34.404804,379.129028 33.966663,380.776489 
	C28.392906,401.734161 22.665976,422.651001 17.007689,443.586243 
	C12.232304,461.254852 7.500694,478.935272 2.710247,496.599792 
	C2.599206,497.009247 2.018205,497.291290 1.328214,497.316406 
	C1.000000,331.766998 1.000000,166.534012 1.000000,1.000000 
	C75.687294,1.000000 150.374985,1.000000 225.531342,1.000002 
z"/>
<path fill="#ff000000" opacity="1.000000" stroke="none" 
	d="
M513.000000,234.531342 
	C512.333191,234.027924 511.142639,233.090317 511.076050,232.078751 
	C509.297546,205.054199 502.380127,179.297180 491.813568,154.486008 
	C485.350830,139.310974 477.433167,124.921043 468.111420,111.249130 
	C455.270905,92.416405 439.658539,76.233856 422.732391,61.109009 
	C407.612885,47.598522 390.753235,36.610355 372.832214,27.556448 
	C353.301544,17.689325 332.759155,9.993490 311.059052,6.025666 
	C304.687927,4.860714 298.255859,4.031802 291.867065,2.957619 
	C290.984192,2.809180 290.190155,2.132403 289.677490,1.350110 
	C364.262115,1.000000 438.524261,1.000000 513.000000,1.000000 
	C513.000000,78.687431 513.000000,156.375061 513.000000,234.531342 
z"/>
<path fill="#ff000000" opacity="1.000000" stroke="none" 
	d="
M0.999996,507.499481 
	C2.871231,508.815247 4.742468,510.630493 6.306853,512.722900 
	C4.412534,513.000000 2.825068,513.000000 1.000000,513.000000 
	C1.000000,511.335876 1.000000,509.667419 0.999996,507.499481 
z"/>
<path fill="#FFFFFF" opacity="1.000000" stroke="none" 
	d="
M312.782776,491.866699 
	C289.909027,497.272644 267.057922,499.261658 244.110611,497.826904 
	C213.885498,495.937134 184.710464,489.059296 157.166229,476.079773 
	C153.113617,474.170074 149.257278,471.773651 145.078278,470.230103 
	C142.778488,469.380615 139.827896,469.191650 137.455200,469.805145 
	C98.220688,479.950165 59.032261,490.273407 19.829590,500.541779 
	C17.819166,501.068390 15.773450,501.460236 12.706464,502.147278 
	C15.220373,492.947601 17.465897,484.698700 19.728762,476.454590 
	C28.654312,443.936554 37.627129,411.431305 46.402180,378.872742 
	C46.888271,377.069214 46.265022,374.535248 45.293587,372.835358 
	C31.864439,349.336121 23.398466,324.080627 18.396868,297.590729 
	C14.643282,277.710632 13.828712,257.546173 15.230846,237.498016 
	C17.622911,203.295547 27.006704,170.833771 43.281277,140.567169 
	C57.676933,113.794853 76.562553,90.602646 99.622696,70.713402 
	C115.464493,57.049915 132.610687,45.466888 151.392288,36.350250 
	C175.024155,24.879271 199.738052,16.572931 225.977844,14.102755 
	C241.821014,12.611302 257.891754,11.316282 273.715607,12.288078 
	C310.315186,14.535781 344.830811,24.611345 376.961334,42.816982 
	C400.381073,56.086956 421.010315,72.707031 438.911926,92.581474 
	C464.214996,120.673080 482.027008,153.011520 492.173035,189.590347 
	C499.395355,215.628464 502.283142,242.127502 500.821869,268.958099 
	C499.313019,296.662384 492.993713,323.442444 482.001007,349.026825 
	C471.483307,373.505768 457.532043,395.725647 439.886169,415.788300 
	C416.760315,442.081390 389.301758,462.457794 357.427216,476.527466 
	C343.207764,482.804047 327.968109,486.769379 312.782776,491.866699 
M252.553024,53.028011 
	C243.770401,53.824272 234.904984,54.106548 226.219391,55.505264 
	C187.437500,61.750641 153.103775,77.771378 123.908127,104.084557 
	C81.631058,142.187637 58.840004,189.897751 56.203037,246.748199 
	C54.206898,289.783020 65.583755,329.460968 89.030548,365.608307 
	C91.041084,368.707855 91.293335,371.413055 90.297569,374.925903 
	C84.807762,394.292969 79.564346,413.730042 74.266273,433.151215 
	C73.328377,436.589294 72.531319,440.065796 71.524269,444.106110 
	C73.312073,443.724792 74.254448,443.561646 75.176781,443.321533 
	C97.553680,437.495361 119.956970,431.766418 142.276672,425.728516 
	C146.175522,424.673828 149.164642,425.089417 152.556168,427.163422 
	C182.886200,445.711060 215.918579,455.763641 251.402496,456.741913 
	C300.503357,458.095642 344.599213,443.504852 383.248718,413.061066 
	C456.974609,354.987885 481.843079,251.954346 439.953339,168.101227 
	C401.967987,92.063675 338.808777,53.908108 252.553024,53.028011 
z"/>
<path fill="#ff000000" opacity="1.000000" stroke="none" 
	d="
M253.045532,53.017166 
	C338.808777,53.908108 401.967987,92.063675 439.953339,168.101227 
	C481.843079,251.954346 456.974609,354.987885 383.248718,413.061066 
	C344.599213,443.504852 300.503357,458.095642 251.402496,456.741913 
	C215.918579,455.763641 182.886200,445.711060 152.556168,427.163422 
	C149.164642,425.089417 146.175522,424.673828 142.276672,425.728516 
	C119.956970,431.766418 97.553680,437.495361 75.176781,443.321533 
	C74.254448,443.561646 73.312073,443.724792 71.524269,444.106110 
	C72.531319,440.065796 73.328377,436.589294 74.266273,433.151215 
	C79.564346,413.730042 84.807762,394.292969 90.297569,374.925903 
	C91.293335,371.413055 91.041084,368.707855 89.030548,365.608307 
	C65.583755,329.460968 54.206898,289.783020 56.203037,246.748199 
	C58.840004,189.897751 81.631058,142.187637 123.908127,104.084557 
	C153.103775,77.771378 187.437500,61.750641 226.219391,55.505264 
	C234.904984,54.106548 243.770401,53.824272 253.045532,53.017166 
M159.906189,264.610382 
	C162.287979,268.024017 164.596039,271.491882 167.062820,274.842987 
	C196.217941,314.449768 231.366669,346.220551 279.376587,361.472565 
	C296.543488,366.926239 313.551117,373.386749 331.960541,370.841461 
	C357.719940,367.279999 382.638733,350.055084 380.920471,317.436676 
	C380.786469,314.893311 379.070770,311.216339 377.022308,310.182800 
	C360.249390,301.719910 343.321289,293.543488 326.223511,285.756134 
	C319.649811,282.762115 317.449097,284.002991 312.978363,289.654205 
	C306.987549,297.226959 300.856018,304.688385 294.782440,312.195618 
	C291.669800,316.042969 287.920715,317.005005 283.234467,315.165100 
	C246.848022,300.879547 219.068634,276.602966 199.120758,243.116699 
	C196.433701,238.605942 196.837631,234.945740 200.156372,230.869995 
	C205.405533,224.423569 210.217880,217.618820 215.148682,210.916855 
	C217.849457,207.245972 218.009766,203.345551 216.239655,199.129150 
	C209.994553,184.253159 203.801956,169.354126 197.734421,154.404999 
	C194.514603,146.472061 189.478973,141.673004 180.275833,142.726318 
	C177.647308,143.027161 174.950851,142.764114 172.286362,142.715042 
	C166.476654,142.608063 161.470901,144.725525 157.341537,148.630142 
	C138.762741,166.197784 131.384354,187.701431 135.658340,212.905426 
	C138.906128,232.057770 148.233719,248.525986 159.906189,264.610382 
z"/>
<path fill="#FEFFFE" opacity="1.000000" stroke="none" 
	d="
M159.699768,264.315399 
	C148.233719,248.525986 138.906128,232.057770 135.658340,212.905426 
	C131.384354,187.701431 138.762741,166.197784 157.341537,148.630142 
	C161.470901,144.725525 166.476654,142.608063 172.286362,142.715042 
	C174.950851,142.764114 177.647308,143.027161 180.275833,142.726318 
	C189.478973,141.673004 194.514603,146.472061 197.734421,154.404999 
	C203.801956,169.354126 209.994553,184.253159 216.239655,199.129150 
	C218.009766,203.345551 217.849457,207.245972 215.148682,210.916855 
	C210.217880,217.618820 205.405533,224.423569 200.156372,230.869995 
	C196.837631,234.945740 196.433701,238.605942 199.120758,243.116699 
	C219.068634,276.602966 246.848022,300.879547 283.234467,315.165100 
	C287.920715,317.005005 291.669800,316.042969 294.782440,312.195618 
	C300.856018,304.688385 306.987549,297.226959 312.978363,289.654205 
	C317.449097,284.002991 319.649811,282.762115 326.223511,285.756134 
	C343.321289,293.543488 360.249390,301.719910 377.022308,310.182800 
	C379.070770,311.216339 380.786469,314.893311 380.920471,317.436676 
	C382.638733,350.055084 357.719940,367.279999 331.960541,370.841461 
	C313.551117,373.386749 296.543488,366.926239 279.376587,361.472565 
	C231.366669,346.220551 196.217941,314.449768 167.062820,274.842987 
	C164.596039,271.491882 162.287979,268.024017 159.699768,264.315399 
z"/>
</svg>